<svg width="32" height="32" viewBox="0 0 32 32" fill="none" xmlns="http://www.w3.org/2000/svg">
<g clip-path="url(#clip0_83_137)">
<path d="M21.88 2.15702C21.5408 1.80182 21.135 1.51694 20.6857 1.31867C20.2363 1.12039 19.7524 1.0126 19.2614 1.00145C18.7704 0.990307 18.282 1.07603 17.8241 1.25372C17.3663 1.4314 16.9479 1.69758 16.593 2.03702C16.365 2.25405 16.1657 2.49938 16 2.76702C15.6988 2.28228 15.2908 1.87289 14.807 1.57018C14.3232 1.26748 13.7766 1.07949 13.209 1.02061C12.6414 0.961736 12.0678 1.03353 11.5322 1.23051C10.9966 1.42748 10.5132 1.74441 10.119 2.15702C9.40065 2.90966 8.99985 3.91009 8.99985 4.95052C8.99985 5.99094 9.40065 6.99138 10.119 7.74402L16 13.831L21.881 7.74402C22.5994 6.99137 23.0002 5.99082 23 4.95032C22.9998 3.90982 22.5987 2.90941 21.88 2.15702Z" stroke="#0091DF" stroke-width="2" stroke-linecap="round" stroke-linejoin="round"/>
<path d="M7 31V29L1.722 22.843C1.25589 22.2991 0.999787 21.6063 1 20.89V12C1 11.4696 1.21071 10.9609 1.58579 10.5858C1.96086 10.2107 2.46957 10 3 10C3.53043 10 4.03914 10.2107 4.41421 10.5858C4.78929 10.9609 5 11.4696 5 12V17.417" stroke="#0091DF" stroke-width="2" stroke-linecap="round" stroke-linejoin="round"/>
<path d="M14 30.9999V24.2429C14.0001 23.8488 13.9224 23.4586 13.7716 23.0945C13.6208 22.7304 13.3997 22.3996 13.121 22.1209L8.50001 17.4999C8.10209 17.1023 7.56256 16.8789 7.00001 16.8789C6.43745 16.8789 5.89792 17.1023 5.50001 17.4999C5.10235 17.8979 4.87897 18.4374 4.87897 18.9999C4.87897 19.5625 5.10235 20.102 5.50001 20.4999L9.00001 23.9999" stroke="#0091DF" stroke-width="2" stroke-linecap="round" stroke-linejoin="round"/>
<path d="M25 31V29L30.278 22.843C30.7441 22.2991 31.0002 21.6063 31 20.89V12C31 11.4696 30.7893 10.9609 30.4142 10.5858C30.0391 10.2107 29.5304 10 29 10C28.4696 10 27.9609 10.2107 27.5858 10.5858C27.2107 10.9609 27 11.4696 27 12V17.417" stroke="#0091DF" stroke-width="2" stroke-linecap="round" stroke-linejoin="round"/>
<path d="M18 30.9999V24.2429C18 23.8488 18.0776 23.4586 18.2284 23.0945C18.3792 22.7304 18.6003 22.3996 18.879 22.1209L23.5 17.4999C23.8979 17.1023 24.4374 16.8789 25 16.8789C25.5626 16.8789 26.1021 17.1023 26.5 17.4999C26.8977 17.8979 27.121 18.4374 27.121 18.9999C27.121 19.5625 26.8977 20.102 26.5 20.4999L23 23.9999" stroke="#0091DF" stroke-width="2" stroke-linecap="round" stroke-linejoin="round"/>
</g>
<defs>
<clipPath id="clip0_83_137">
<rect width="32" height="32" fill="white"/>
</clipPath>
</defs>
</svg>
