<svg width="32" height="32" viewBox="0 0 32 32" fill="none" xmlns="http://www.w3.org/2000/svg">
<path d="M28 12C27.775 12.0014 27.5508 12.0286 27.332 12.081C26.5191 9.72219 24.9904 7.67582 22.9591 6.22725C20.9277 4.77869 18.4949 4.00012 16 4.00012C13.5051 4.00012 11.0723 4.77869 9.04093 6.22725C7.00957 7.67582 5.48087 9.72219 4.668 12.081C4.44915 12.0286 4.22503 12.0014 4 12C3.20435 12 2.44129 12.3161 1.87868 12.8787C1.31607 13.4413 1 14.2044 1 15C1 15.7957 1.31607 16.5587 1.87868 17.1213C2.44129 17.6839 3.20435 18 4 18C4.061 18 4.117 17.986 4.177 17.982C4.64334 20.7808 6.08744 23.3234 8.25236 25.1574C10.4173 26.9914 13.1626 27.998 16 27.998C18.8374 27.998 21.5827 26.9914 23.7476 25.1574C25.9126 23.3234 27.3567 20.7808 27.823 17.982C27.883 17.982 27.939 18 28 18C28.7956 18 29.5587 17.6839 30.1213 17.1213C30.6839 16.5587 31 15.7957 31 15C31 14.2044 30.6839 13.4413 30.1213 12.8787C29.5587 12.3161 28.7956 12 28 12Z" stroke="#0091DF" stroke-width="2" stroke-linecap="round" stroke-linejoin="round"/>
<path d="M11 15C11.5523 15 12 14.5523 12 14C12 13.4477 11.5523 13 11 13C10.4477 13 10 13.4477 10 14C10 14.5523 10.4477 15 11 15Z" stroke="#0091DF" stroke-width="2" stroke-linecap="round" stroke-linejoin="round"/>
<path d="M21 15C21.5523 15 22 14.5523 22 14C22 13.4477 21.5523 13 21 13C20.4477 13 20 13.4477 20 14C20 14.5523 20.4477 15 21 15Z" stroke="#0091DF" stroke-width="2" stroke-linecap="round" stroke-linejoin="round"/>
<path d="M13 22.3169C13.9362 22.7665 14.9615 22.9999 16 22.9999C17.0385 22.9999 18.0638 22.7665 19 22.3169" stroke="#0091DF" stroke-width="2" stroke-linecap="round" stroke-linejoin="round"/>
<path d="M16 4C15.5066 3.99989 15.0208 4.12149 14.5856 4.354C14.1504 4.58651 13.7793 4.92277 13.5052 5.33298C13.231 5.7432 13.0622 6.2147 13.0138 6.70572C12.9654 7.19674 13.0389 7.69212 13.2277 8.14796C13.4165 8.60381 13.7148 9.00605 14.0962 9.31906C14.4776 9.63206 14.9303 9.84616 15.4143 9.94239C15.8982 10.0386 16.3984 10.014 16.8705 9.87073C17.3427 9.72745 17.7722 9.46994 18.121 9.121" stroke="#0091DF" stroke-width="2" stroke-linecap="round" stroke-linejoin="round"/>
</svg>
