<svg width="32" height="32" viewBox="0 0 32 32" fill="none" xmlns="http://www.w3.org/2000/svg">
<path d="M24 8H8V18H24V8Z" stroke="#2B6636" stroke-width="2" stroke-linecap="round" stroke-linejoin="round"/>
<path d="M30.579 25.1L28 22V7C27.9976 6.20508 27.6808 5.4434 27.1187 4.8813C26.5566 4.31921 25.7949 4.00237 25 4H6.99999C6.20507 4.00237 5.44339 4.31921 4.88129 4.8813C4.3192 5.4434 4.00237 6.20508 3.99999 7V22L1.42099 25.1C1.20693 25.3587 1.07083 25.6729 1.02856 26.0061C0.986284 26.3392 1.03959 26.6774 1.18224 26.9814C1.3249 27.2854 1.55104 27.5425 1.83428 27.7229C2.11753 27.9032 2.44621 27.9993 2.78199 28H29.218C29.5538 27.9993 29.8825 27.9032 30.1657 27.7229C30.4489 27.5425 30.6751 27.2854 30.8177 26.9814C30.9604 26.6774 31.0137 26.3392 30.9714 26.0061C30.9292 25.6729 30.7931 25.3587 30.579 25.1Z" stroke="#2B6636" stroke-width="2" stroke-linecap="round" stroke-linejoin="round"/>
<path d="M4 22H28" stroke="#2B6636" stroke-width="2" stroke-linecap="round" stroke-linejoin="round"/>
</svg>
