<svg width="32" height="32" viewBox="0 0 32 32" fill="none" xmlns="http://www.w3.org/2000/svg">
<path d="M31 6V26L21 30L11 26L1 30V10L4 8.8" stroke="#0091DF" stroke-width="2" stroke-linecap="round" stroke-linejoin="round"/>
<path d="M17 19C21.9706 19 26 14.9706 26 10C26 5.02944 21.9706 1 17 1C12.0294 1 8 5.02944 8 10C8 14.9706 12.0294 19 17 19Z" stroke="#0091DF" stroke-width="2" stroke-linecap="round" stroke-linejoin="round"/>
<path d="M20 7L18 11L14 13L16 9L20 7Z" stroke="#0091DF" stroke-width="2" stroke-linecap="round" stroke-linejoin="round"/>
<path d="M20 7L18 11L14 13L16 9L20 7Z" fill="#0091DF"/>
</svg>
