<svg width="32" height="32" viewBox="0 0 32 32" fill="none" xmlns="http://www.w3.org/2000/svg">
<path d="M29 2L28.293 9.278L21 8" stroke="#0091DF" stroke-width="2" stroke-linecap="round" stroke-linejoin="round"/>
<path d="M30.008 15.998C30.008 23.73 23.74 29.998 16.008 29.998C8.276 29.998 2.008 23.73 2.008 15.998C2.008 8.26605 8.276 1.99805 16.008 1.99805C21.305 1.99805 25.915 4.94005 28.293 9.27805" stroke="#0091DF" stroke-width="2" stroke-linecap="round" stroke-linejoin="round"/>
<path d="M15.398 21H8.412V19.599L10.921 17.063C11.763 16.201 13.02 15.084 13.02 13.884C13.02 13.483 12.91 13.185 12.688 12.988C12.467 12.792 12.172 12.694 11.803 12.694C11.25 12.694 10.577 12.856 9.533 13.719L8.385 12.359C9.385 11.509 10.306 11 12 11C13.847 11 15.118 11.995 15.118 13.638C15.118 14.098 15.037 14.53 14.875 14.934C14.326 16.306 11.044 19.291 11.044 19.291H15.398V21Z" fill="#0091DF"/>
<path d="M23.615 18.998H22.412V21H20.348V18.998H16V17.528L20.464 11H22.412V17.357H23.615V18.998ZM20.348 17.357V15.662C20.348 15.382 20.397 13.749 20.437 13.495C20.437 13.495 20.25 13.869 17.942 17.357H20.348Z" fill="#0091DF"/>
</svg>
