<svg width="32" height="32" viewBox="0 0 32 32" fill="none" xmlns="http://www.w3.org/2000/svg">
<path d="M19.853 6.02995L24 18.9999H28C28.7957 18.9999 29.5587 19.316 30.1213 19.8786C30.6839 20.4412 31 21.2043 31 21.9999V23.9999C31 24.5304 30.7893 25.0391 30.4142 25.4142C30.0391 25.7892 29.5304 25.9999 29 25.9999H20L1.83601 14.0529C1.40552 13.7438 1.11487 13.2768 1.02755 12.7541C0.94024 12.2313 1.06336 11.6952 1.37001 11.2629L7.60501 2.53295C7.80062 2.2578 8.09751 2.07163 8.43038 2.01537C8.76325 1.95911 9.10484 2.03737 9.38001 2.23295L9.38901 2.23895C9.558 2.36199 9.69467 2.52414 9.78732 2.71153C9.87997 2.89892 9.92584 3.10596 9.92101 3.31495C9.90066 4.23243 10.1072 5.14075 10.5222 5.95925C10.9372 6.77776 11.5479 7.48114 12.3 8.00695C12.899 8.44746 13.581 8.76196 14.305 8.93143C15.0289 9.1009 15.7797 9.12183 16.512 8.99295" stroke="#0091DF" stroke-width="2" stroke-linecap="round" stroke-linejoin="round"/>
<path d="M1 26H11" stroke="#0091DF" stroke-width="2" stroke-linecap="round" stroke-linejoin="round"/>
<path d="M1 21H4" stroke="#0091DF" stroke-width="2" stroke-linecap="round" stroke-linejoin="round"/>
</svg>
