<svg width="32" height="32" viewBox="0 0 32 32" fill="none" xmlns="http://www.w3.org/2000/svg">
<path d="M8 31C9.65685 31 11 29.6569 11 28C11 26.3431 9.65685 25 8 25C6.34315 25 5 26.3431 5 28C5 29.6569 6.34315 31 8 31Z" stroke="#2B6636" stroke-width="2" stroke-linecap="round" stroke-linejoin="round"/>
<path d="M27 31C28.6569 31 30 29.6569 30 28C30 26.3431 28.6569 25 27 25C25.3431 25 24 26.3431 24 28C24 29.6569 25.3431 31 27 31Z" stroke="#2B6636" stroke-width="2" stroke-linecap="round" stroke-linejoin="round"/>
<path d="M5.706 7H30L27 21H7L5 1H1" stroke="#2B6636" stroke-width="2" stroke-linecap="round" stroke-linejoin="round"/>
</svg>
