<svg width="32" height="32" viewBox="0 0 32 32" fill="none" xmlns="http://www.w3.org/2000/svg">
<path d="M29 6.9C29 4.8 27.3 3 25.1 3C24 3 21.7 3.7 19.7 4.3C18.5 4.7 17.2 4.9 16 4.9C14.7 4.9 13.5 4.7 12.3 4.3C10.3 3.7 8 3 6.9 3C4.7 3 3 4.8 3 6.9C3 9 4.3 13.4 4.3 13.4L3 26.5C3 27.9 4.1 29 5.5 29C6.4 29 7.1 28.4 7.6 27.8L12.6 21.9C13.5 20.8 14.7 20 16 20C17.3 20 18.4 20.8 19.4 21.9L24.4 27.8C24.9 28.4 25.7 29 26.5 29C27.9 29 29 27.9 29 26.5L27.7 13.4C27.7 13.4 29 9 29 6.9Z" stroke="#0091DF" stroke-width="2" stroke-linecap="round" stroke-linejoin="round"/>
<path d="M12.1 9.59998C13.4 9.89998 14.7 9.99998 16 9.99998C17.3 9.99998 18.6 9.79998 19.9 9.59998" stroke="#0091DF" stroke-width="2" stroke-linecap="round" stroke-linejoin="round"/>
</svg>
